<mxfile host="app.diagrams.net" agent="Mozilla/5.0 (Windows NT 10.0; Win64; x64) AppleWebKit/537.36 (KHTML, like Gecko) Chrome/126.0.0.0 Safari/537.36" version="24.7.4">
  <diagram name="Page-1" id="MtUGM5xWDQlCLiO-m1Kt">
    <mxGraphModel dx="830" dy="515" grid="1" gridSize="10" guides="1" tooltips="1" connect="1" arrows="1" fold="1" page="1" pageScale="1" pageWidth="850" pageHeight="1100" math="0" shadow="0">
      <root>
        <mxCell id="0" />
        <mxCell id="1" parent="0" />
        <mxCell id="lLxVUIgPVJibeyAOsI64-5" value="&lt;font style=&quot;font-size: 10px;&quot;&gt;MahaSiswa&lt;/font&gt;" style="whiteSpace=wrap;html=1;align=center;" vertex="1" parent="1">
          <mxGeometry x="130" y="160" width="100" height="40" as="geometry" />
        </mxCell>
        <mxCell id="lLxVUIgPVJibeyAOsI64-6" value="&lt;font style=&quot;font-size: 10px;&quot;&gt;Mendaftar&lt;/font&gt;" style="shape=rhombus;perimeter=rhombusPerimeter;whiteSpace=wrap;html=1;align=center;" vertex="1" parent="1">
          <mxGeometry x="365" y="150" width="120" height="60" as="geometry" />
        </mxCell>
        <mxCell id="lLxVUIgPVJibeyAOsI64-7" value="&lt;font style=&quot;font-size: 11px;&quot;&gt;Anggota&lt;/font&gt;&lt;div style=&quot;font-size: 11px;&quot;&gt;&lt;font style=&quot;font-size: 11px;&quot;&gt;Perpustakaan&lt;/font&gt;&lt;/div&gt;" style="whiteSpace=wrap;html=1;align=center;" vertex="1" parent="1">
          <mxGeometry x="630" y="160" width="100" height="40" as="geometry" />
        </mxCell>
        <mxCell id="lLxVUIgPVJibeyAOsI64-8" value="&lt;font style=&quot;vertical-align: inherit;&quot;&gt;&lt;font style=&quot;vertical-align: inherit; font-size: 8px;&quot;&gt;NAMA&lt;/font&gt;&lt;/font&gt;" style="ellipse;whiteSpace=wrap;html=1;align=center;" vertex="1" parent="1">
          <mxGeometry x="140" y="90" width="80" height="30" as="geometry" />
        </mxCell>
        <mxCell id="lLxVUIgPVJibeyAOsI64-9" value="&lt;font style=&quot;vertical-align: inherit;&quot;&gt;&lt;font style=&quot;vertical-align: inherit; font-size: 10px;&quot;&gt;Nama_belakang&lt;/font&gt;&lt;/font&gt;" style="ellipse;whiteSpace=wrap;html=1;align=center;" vertex="1" parent="1">
          <mxGeometry x="220" y="46" width="90" height="36" as="geometry" />
        </mxCell>
        <mxCell id="lLxVUIgPVJibeyAOsI64-10" value="&lt;font style=&quot;vertical-align: inherit; font-size: 10px;&quot;&gt;&lt;font style=&quot;vertical-align: inherit; font-size: 10px;&quot;&gt;&lt;font style=&quot;vertical-align: inherit; font-size: 10px;&quot;&gt;&lt;font style=&quot;vertical-align: inherit; font-size: 10px;&quot;&gt;Nama_tengah&lt;/font&gt;&lt;/font&gt;&lt;/font&gt;&lt;/font&gt;" style="ellipse;whiteSpace=wrap;html=1;align=center;" vertex="1" parent="1">
          <mxGeometry x="130" y="10" width="90" height="36" as="geometry" />
        </mxCell>
        <mxCell id="lLxVUIgPVJibeyAOsI64-11" value="&lt;font style=&quot;vertical-align: inherit;&quot;&gt;&lt;font style=&quot;vertical-align: inherit; font-size: 10px;&quot;&gt;Nama_depan&lt;/font&gt;&lt;/font&gt;" style="ellipse;whiteSpace=wrap;html=1;align=center;" vertex="1" parent="1">
          <mxGeometry x="30" y="46" width="90" height="36" as="geometry" />
        </mxCell>
        <mxCell id="lLxVUIgPVJibeyAOsI64-15" value="&lt;font style=&quot;font-size: 10px;&quot;&gt;Alamat&lt;/font&gt;" style="ellipse;whiteSpace=wrap;html=1;align=center;" vertex="1" parent="1">
          <mxGeometry x="40" y="190" width="80" height="30" as="geometry" />
        </mxCell>
        <mxCell id="lLxVUIgPVJibeyAOsI64-16" value="&lt;font style=&quot;font-size: 10px;&quot;&gt;Jurusan&lt;/font&gt;" style="ellipse;whiteSpace=wrap;html=1;align=center;" vertex="1" parent="1">
          <mxGeometry x="10" y="150" width="80" height="30" as="geometry" />
        </mxCell>
        <mxCell id="lLxVUIgPVJibeyAOsI64-17" value="" style="endArrow=none;html=1;rounded=0;entryX=0.5;entryY=0;entryDx=0;entryDy=0;" edge="1" parent="1" source="lLxVUIgPVJibeyAOsI64-8" target="lLxVUIgPVJibeyAOsI64-5">
          <mxGeometry relative="1" as="geometry">
            <mxPoint x="110" y="160" as="sourcePoint" />
            <mxPoint x="250" y="170" as="targetPoint" />
          </mxGeometry>
        </mxCell>
        <mxCell id="lLxVUIgPVJibeyAOsI64-18" value="" style="endArrow=none;html=1;rounded=0;entryX=0.54;entryY=0.98;entryDx=0;entryDy=0;exitX=0.511;exitY=-0.004;exitDx=0;exitDy=0;entryPerimeter=0;exitPerimeter=0;" edge="1" parent="1" source="lLxVUIgPVJibeyAOsI64-8" target="lLxVUIgPVJibeyAOsI64-10">
          <mxGeometry relative="1" as="geometry">
            <mxPoint x="182.49000000000004" y="92.34000000000002" as="sourcePoint" />
            <mxPoint x="177.502" y="46.000000000000014" as="targetPoint" />
          </mxGeometry>
        </mxCell>
        <mxCell id="lLxVUIgPVJibeyAOsI64-19" value="" style="endArrow=none;html=1;rounded=0;entryX=0.017;entryY=0.606;entryDx=0;entryDy=0;entryPerimeter=0;" edge="1" parent="1" target="lLxVUIgPVJibeyAOsI64-9">
          <mxGeometry relative="1" as="geometry">
            <mxPoint x="180" y="90" as="sourcePoint" />
            <mxPoint x="290" y="100" as="targetPoint" />
          </mxGeometry>
        </mxCell>
        <mxCell id="lLxVUIgPVJibeyAOsI64-20" value="" style="endArrow=none;html=1;rounded=0;exitX=0.948;exitY=0.646;exitDx=0;exitDy=0;exitPerimeter=0;entryX=0.45;entryY=-0.098;entryDx=0;entryDy=0;entryPerimeter=0;" edge="1" parent="1">
          <mxGeometry relative="1" as="geometry">
            <mxPoint x="125.99799999999998" y="66.196" as="sourcePoint" />
            <mxPoint x="180.99" y="90" as="targetPoint" />
          </mxGeometry>
        </mxCell>
        <mxCell id="lLxVUIgPVJibeyAOsI64-21" value="" style="endArrow=none;html=1;rounded=0;exitX=1;exitY=0.5;exitDx=0;exitDy=0;" edge="1" parent="1" source="lLxVUIgPVJibeyAOsI64-5" target="lLxVUIgPVJibeyAOsI64-6">
          <mxGeometry relative="1" as="geometry">
            <mxPoint x="230" y="150" as="sourcePoint" />
            <mxPoint x="390" y="150" as="targetPoint" />
          </mxGeometry>
        </mxCell>
        <mxCell id="lLxVUIgPVJibeyAOsI64-22" value="Many" style="edgeLabel;html=1;align=center;verticalAlign=middle;resizable=0;points=[];fontSize=9;" vertex="1" connectable="0" parent="lLxVUIgPVJibeyAOsI64-21">
          <mxGeometry x="-0.0037" relative="1" as="geometry">
            <mxPoint x="5" y="10" as="offset" />
          </mxGeometry>
        </mxCell>
        <mxCell id="lLxVUIgPVJibeyAOsI64-23" value="&lt;font style=&quot;font-size: 10px;&quot;&gt;Alamat&lt;/font&gt;" style="ellipse;whiteSpace=wrap;html=1;align=center;" vertex="1" parent="1">
          <mxGeometry x="290" y="87" width="90" height="36" as="geometry" />
        </mxCell>
        <mxCell id="lLxVUIgPVJibeyAOsI64-24" value="&lt;font style=&quot;font-size: 10px;&quot;&gt;Nim&lt;/font&gt;" style="ellipse;whiteSpace=wrap;html=1;align=center;fontStyle=4;" vertex="1" parent="1">
          <mxGeometry x="38" y="110" width="80" height="30" as="geometry" />
        </mxCell>
        <mxCell id="lLxVUIgPVJibeyAOsI64-26" value="&lt;font style=&quot;font-size: 10px;&quot;&gt;Jurusan&lt;/font&gt;" style="ellipse;whiteSpace=wrap;html=1;align=center;" vertex="1" parent="1">
          <mxGeometry x="320" y="30" width="90" height="36" as="geometry" />
        </mxCell>
        <mxCell id="lLxVUIgPVJibeyAOsI64-27" value="&lt;font style=&quot;font-size: 10px;&quot;&gt;Nama&lt;/font&gt;" style="ellipse;whiteSpace=wrap;html=1;align=center;" vertex="1" parent="1">
          <mxGeometry x="470" y="82" width="90" height="36" as="geometry" />
        </mxCell>
        <mxCell id="lLxVUIgPVJibeyAOsI64-28" value="&lt;font style=&quot;font-size: 10px;&quot;&gt;Nim&lt;/font&gt;" style="ellipse;whiteSpace=wrap;html=1;align=center;fontStyle=4;" vertex="1" parent="1">
          <mxGeometry x="430" y="30" width="90" height="36" as="geometry" />
        </mxCell>
        <mxCell id="lLxVUIgPVJibeyAOsI64-29" value="" style="endArrow=none;html=1;rounded=0;exitX=1;exitY=1;exitDx=0;exitDy=0;entryX=0.5;entryY=0;entryDx=0;entryDy=0;" edge="1" parent="1" source="lLxVUIgPVJibeyAOsI64-23" target="lLxVUIgPVJibeyAOsI64-6">
          <mxGeometry relative="1" as="geometry">
            <mxPoint x="370" y="140" as="sourcePoint" />
            <mxPoint x="530" y="140" as="targetPoint" />
          </mxGeometry>
        </mxCell>
        <mxCell id="lLxVUIgPVJibeyAOsI64-30" value="" style="endArrow=none;html=1;rounded=0;entryX=0.048;entryY=0.688;entryDx=0;entryDy=0;entryPerimeter=0;exitX=0.496;exitY=0.007;exitDx=0;exitDy=0;exitPerimeter=0;" edge="1" parent="1" source="lLxVUIgPVJibeyAOsI64-6" target="lLxVUIgPVJibeyAOsI64-27">
          <mxGeometry relative="1" as="geometry">
            <mxPoint x="440" y="150" as="sourcePoint" />
            <mxPoint x="540" y="130" as="targetPoint" />
          </mxGeometry>
        </mxCell>
        <mxCell id="lLxVUIgPVJibeyAOsI64-31" value="" style="endArrow=none;html=1;rounded=0;entryX=0.784;entryY=0.915;entryDx=0;entryDy=0;entryPerimeter=0;exitX=0.5;exitY=0.01;exitDx=0;exitDy=0;exitPerimeter=0;" edge="1" parent="1" source="lLxVUIgPVJibeyAOsI64-6" target="lLxVUIgPVJibeyAOsI64-26">
          <mxGeometry relative="1" as="geometry">
            <mxPoint x="440" y="150" as="sourcePoint" />
            <mxPoint x="530" y="140" as="targetPoint" />
          </mxGeometry>
        </mxCell>
        <mxCell id="lLxVUIgPVJibeyAOsI64-32" value="" style="endArrow=none;html=1;rounded=0;entryX=0;entryY=1;entryDx=0;entryDy=0;exitX=0.498;exitY=0.006;exitDx=0;exitDy=0;exitPerimeter=0;" edge="1" parent="1" source="lLxVUIgPVJibeyAOsI64-6" target="lLxVUIgPVJibeyAOsI64-28">
          <mxGeometry relative="1" as="geometry">
            <mxPoint x="440" y="150" as="sourcePoint" />
            <mxPoint x="530" y="90" as="targetPoint" />
          </mxGeometry>
        </mxCell>
        <mxCell id="lLxVUIgPVJibeyAOsI64-34" value="" style="endArrow=none;html=1;rounded=0;exitX=1;exitY=0.5;exitDx=0;exitDy=0;entryX=-0.004;entryY=0.544;entryDx=0;entryDy=0;entryPerimeter=0;" edge="1" parent="1" source="lLxVUIgPVJibeyAOsI64-6" target="lLxVUIgPVJibeyAOsI64-7">
          <mxGeometry relative="1" as="geometry">
            <mxPoint x="460" y="220" as="sourcePoint" />
            <mxPoint x="620" y="220" as="targetPoint" />
          </mxGeometry>
        </mxCell>
        <mxCell id="lLxVUIgPVJibeyAOsI64-35" value="Many" style="edgeLabel;html=1;align=center;verticalAlign=middle;resizable=0;points=[];fontSize=9;" vertex="1" connectable="0" parent="lLxVUIgPVJibeyAOsI64-34">
          <mxGeometry x="-0.0566" relative="1" as="geometry">
            <mxPoint y="9" as="offset" />
          </mxGeometry>
        </mxCell>
        <mxCell id="lLxVUIgPVJibeyAOsI64-36" value="&lt;font style=&quot;font-size: 10px;&quot;&gt;Nama&lt;/font&gt;" style="ellipse;whiteSpace=wrap;html=1;align=center;" vertex="1" parent="1">
          <mxGeometry x="590" y="30" width="90" height="36" as="geometry" />
        </mxCell>
        <mxCell id="lLxVUIgPVJibeyAOsI64-37" value="&lt;font style=&quot;font-size: 10px;&quot;&gt;Jurusan&lt;/font&gt;" style="ellipse;whiteSpace=wrap;html=1;align=center;" vertex="1" parent="1">
          <mxGeometry x="710" y="30" width="90" height="36" as="geometry" />
        </mxCell>
        <mxCell id="lLxVUIgPVJibeyAOsI64-40" value="&lt;span style=&quot;font-size: 10px;&quot;&gt;&lt;u&gt;Nomor_anggota&lt;/u&gt;&lt;/span&gt;" style="ellipse;whiteSpace=wrap;html=1;align=center;" vertex="1" parent="1">
          <mxGeometry x="570" y="82" width="90" height="36" as="geometry" />
        </mxCell>
        <mxCell id="lLxVUIgPVJibeyAOsI64-41" value="&lt;span style=&quot;font-size: 10px;&quot;&gt;Masa_berlaku&lt;/span&gt;" style="ellipse;whiteSpace=wrap;html=1;align=center;" vertex="1" parent="1">
          <mxGeometry x="740" y="82" width="90" height="36" as="geometry" />
        </mxCell>
        <mxCell id="lLxVUIgPVJibeyAOsI64-42" value="" style="endArrow=none;html=1;rounded=0;entryX=0.462;entryY=-0.015;entryDx=0;entryDy=0;entryPerimeter=0;exitX=0.937;exitY=0.768;exitDx=0;exitDy=0;exitPerimeter=0;" edge="1" parent="1" source="lLxVUIgPVJibeyAOsI64-40" target="lLxVUIgPVJibeyAOsI64-7">
          <mxGeometry relative="1" as="geometry">
            <mxPoint x="520" y="110" as="sourcePoint" />
            <mxPoint x="680" y="110" as="targetPoint" />
          </mxGeometry>
        </mxCell>
        <mxCell id="lLxVUIgPVJibeyAOsI64-43" value="" style="endArrow=none;html=1;rounded=0;entryX=0.472;entryY=-0.017;entryDx=0;entryDy=0;entryPerimeter=0;exitX=0.083;exitY=0.766;exitDx=0;exitDy=0;exitPerimeter=0;" edge="1" parent="1" source="lLxVUIgPVJibeyAOsI64-41" target="lLxVUIgPVJibeyAOsI64-7">
          <mxGeometry relative="1" as="geometry">
            <mxPoint x="580" y="120" as="sourcePoint" />
            <mxPoint x="740" y="120" as="targetPoint" />
          </mxGeometry>
        </mxCell>
        <mxCell id="lLxVUIgPVJibeyAOsI64-44" value="" style="endArrow=none;html=1;rounded=0;exitX=0.79;exitY=0.92;exitDx=0;exitDy=0;entryX=0.469;entryY=-0.009;entryDx=0;entryDy=0;entryPerimeter=0;exitPerimeter=0;" edge="1" parent="1" source="lLxVUIgPVJibeyAOsI64-36" target="lLxVUIgPVJibeyAOsI64-7">
          <mxGeometry relative="1" as="geometry">
            <mxPoint x="689.9974384900387" y="60.71685911928628" as="sourcePoint" />
            <mxPoint x="723.15" y="160" as="targetPoint" />
          </mxGeometry>
        </mxCell>
        <mxCell id="lLxVUIgPVJibeyAOsI64-45" value="" style="endArrow=none;html=1;rounded=0;entryX=0;entryY=1;entryDx=0;entryDy=0;exitX=0.469;exitY=-0.013;exitDx=0;exitDy=0;exitPerimeter=0;" edge="1" parent="1" source="lLxVUIgPVJibeyAOsI64-7" target="lLxVUIgPVJibeyAOsI64-37">
          <mxGeometry relative="1" as="geometry">
            <mxPoint x="730" y="160" as="sourcePoint" />
            <mxPoint x="710" y="120" as="targetPoint" />
          </mxGeometry>
        </mxCell>
        <mxCell id="lLxVUIgPVJibeyAOsI64-47" value="&lt;font style=&quot;font-size: 10px;&quot;&gt;Meminjam&lt;/font&gt;" style="shape=rhombus;perimeter=rhombusPerimeter;whiteSpace=wrap;html=1;align=center;" vertex="1" parent="1">
          <mxGeometry x="620" y="324" width="120" height="60" as="geometry" />
        </mxCell>
        <mxCell id="lLxVUIgPVJibeyAOsI64-48" value="&lt;span style=&quot;font-size: 10px;&quot;&gt;Tanggal_pinjaman&lt;/span&gt;" style="ellipse;whiteSpace=wrap;html=1;align=center;" vertex="1" parent="1">
          <mxGeometry x="520" y="374" width="90" height="36" as="geometry" />
        </mxCell>
        <mxCell id="lLxVUIgPVJibeyAOsI64-49" value="&lt;span style=&quot;font-size: 10px;&quot;&gt;&lt;u&gt;Nomor_buku&lt;/u&gt;&lt;/span&gt;" style="ellipse;whiteSpace=wrap;html=1;align=center;" vertex="1" parent="1">
          <mxGeometry x="750" y="300" width="90" height="36" as="geometry" />
        </mxCell>
        <mxCell id="lLxVUIgPVJibeyAOsI64-50" value="&lt;span style=&quot;font-size: 10px;&quot;&gt;denda&lt;/span&gt;" style="ellipse;whiteSpace=wrap;html=1;align=center;" vertex="1" parent="1">
          <mxGeometry x="720" y="410" width="90" height="36" as="geometry" />
        </mxCell>
        <mxCell id="lLxVUIgPVJibeyAOsI64-51" value="&lt;span style=&quot;font-size: 10px;&quot;&gt;Tanggal_kembali&lt;/span&gt;" style="ellipse;whiteSpace=wrap;html=1;align=center;" vertex="1" parent="1">
          <mxGeometry x="500" y="310" width="90" height="36" as="geometry" />
        </mxCell>
        <mxCell id="lLxVUIgPVJibeyAOsI64-52" value="&lt;span style=&quot;font-size: 10px;&quot;&gt;Judul_buku&lt;/span&gt;" style="ellipse;whiteSpace=wrap;html=1;align=center;" vertex="1" parent="1">
          <mxGeometry x="750" y="346" width="90" height="36" as="geometry" />
        </mxCell>
        <mxCell id="lLxVUIgPVJibeyAOsI64-53" value="&lt;span style=&quot;font-size: 10px;&quot;&gt;Kode_peminjaman&lt;/span&gt;" style="ellipse;whiteSpace=wrap;html=1;align=center;" vertex="1" parent="1">
          <mxGeometry x="510" y="250" width="90" height="36" as="geometry" />
        </mxCell>
        <mxCell id="lLxVUIgPVJibeyAOsI64-54" value="&lt;span style=&quot;font-size: 10px;&quot;&gt;&lt;u&gt;Nomor_anggota&lt;/u&gt;&lt;/span&gt;" style="ellipse;whiteSpace=wrap;html=1;align=center;" vertex="1" parent="1">
          <mxGeometry x="700" y="250" width="90" height="36" as="geometry" />
        </mxCell>
        <mxCell id="lLxVUIgPVJibeyAOsI64-55" value="" style="endArrow=none;html=1;rounded=0;entryX=0.5;entryY=1;entryDx=0;entryDy=0;" edge="1" parent="1" source="lLxVUIgPVJibeyAOsI64-47" target="lLxVUIgPVJibeyAOsI64-7">
          <mxGeometry relative="1" as="geometry">
            <mxPoint x="480" y="400" as="sourcePoint" />
            <mxPoint x="640" y="400" as="targetPoint" />
          </mxGeometry>
        </mxCell>
        <mxCell id="lLxVUIgPVJibeyAOsI64-56" value="1" style="edgeLabel;html=1;align=center;verticalAlign=middle;resizable=0;points=[];" vertex="1" connectable="0" parent="lLxVUIgPVJibeyAOsI64-55">
          <mxGeometry x="-0.0034" y="1" relative="1" as="geometry">
            <mxPoint x="1" y="-42" as="offset" />
          </mxGeometry>
        </mxCell>
        <mxCell id="lLxVUIgPVJibeyAOsI64-57" value="" style="endArrow=none;html=1;rounded=0;exitX=1;exitY=0.5;exitDx=0;exitDy=0;entryX=0;entryY=0.5;entryDx=0;entryDy=0;" edge="1" parent="1" source="lLxVUIgPVJibeyAOsI64-53" target="lLxVUIgPVJibeyAOsI64-47">
          <mxGeometry relative="1" as="geometry">
            <mxPoint x="720" y="320" as="sourcePoint" />
            <mxPoint x="880" y="320" as="targetPoint" />
          </mxGeometry>
        </mxCell>
        <mxCell id="lLxVUIgPVJibeyAOsI64-58" value="" style="endArrow=none;html=1;rounded=0;exitX=1;exitY=0.5;exitDx=0;exitDy=0;entryX=0;entryY=0.5;entryDx=0;entryDy=0;" edge="1" parent="1" source="lLxVUIgPVJibeyAOsI64-51" target="lLxVUIgPVJibeyAOsI64-47">
          <mxGeometry relative="1" as="geometry">
            <mxPoint x="720" y="320" as="sourcePoint" />
            <mxPoint x="880" y="320" as="targetPoint" />
          </mxGeometry>
        </mxCell>
        <mxCell id="lLxVUIgPVJibeyAOsI64-59" value="" style="endArrow=none;html=1;rounded=0;exitX=0.989;exitY=0.429;exitDx=0;exitDy=0;exitPerimeter=0;entryX=0;entryY=0.5;entryDx=0;entryDy=0;" edge="1" parent="1" source="lLxVUIgPVJibeyAOsI64-48" target="lLxVUIgPVJibeyAOsI64-47">
          <mxGeometry relative="1" as="geometry">
            <mxPoint x="660" y="350" as="sourcePoint" />
            <mxPoint x="820" y="350" as="targetPoint" />
          </mxGeometry>
        </mxCell>
        <mxCell id="lLxVUIgPVJibeyAOsI64-60" value="" style="endArrow=none;html=1;rounded=0;exitX=0;exitY=1;exitDx=0;exitDy=0;entryX=1;entryY=0.5;entryDx=0;entryDy=0;" edge="1" parent="1" source="lLxVUIgPVJibeyAOsI64-54" target="lLxVUIgPVJibeyAOsI64-47">
          <mxGeometry relative="1" as="geometry">
            <mxPoint x="730" y="350" as="sourcePoint" />
            <mxPoint x="890" y="350" as="targetPoint" />
          </mxGeometry>
        </mxCell>
        <mxCell id="lLxVUIgPVJibeyAOsI64-61" value="" style="endArrow=none;html=1;rounded=0;exitX=1;exitY=0.5;exitDx=0;exitDy=0;entryX=0.004;entryY=0.57;entryDx=0;entryDy=0;entryPerimeter=0;" edge="1" parent="1" source="lLxVUIgPVJibeyAOsI64-47" target="lLxVUIgPVJibeyAOsI64-49">
          <mxGeometry relative="1" as="geometry">
            <mxPoint x="790" y="350" as="sourcePoint" />
            <mxPoint x="890" y="350" as="targetPoint" />
          </mxGeometry>
        </mxCell>
        <mxCell id="lLxVUIgPVJibeyAOsI64-62" value="" style="endArrow=none;html=1;rounded=0;exitX=1;exitY=0.5;exitDx=0;exitDy=0;entryX=0;entryY=0.5;entryDx=0;entryDy=0;" edge="1" parent="1" source="lLxVUIgPVJibeyAOsI64-47" target="lLxVUIgPVJibeyAOsI64-52">
          <mxGeometry relative="1" as="geometry">
            <mxPoint x="790" y="359.85" as="sourcePoint" />
            <mxPoint x="950" y="359.85" as="targetPoint" />
          </mxGeometry>
        </mxCell>
        <mxCell id="lLxVUIgPVJibeyAOsI64-63" value="" style="endArrow=none;html=1;rounded=0;exitX=1;exitY=0.5;exitDx=0;exitDy=0;entryX=0;entryY=0;entryDx=0;entryDy=0;" edge="1" parent="1" source="lLxVUIgPVJibeyAOsI64-47" target="lLxVUIgPVJibeyAOsI64-50">
          <mxGeometry relative="1" as="geometry">
            <mxPoint x="770" y="400" as="sourcePoint" />
            <mxPoint x="930" y="400" as="targetPoint" />
          </mxGeometry>
        </mxCell>
        <mxCell id="lLxVUIgPVJibeyAOsI64-64" value="&lt;span style=&quot;font-size: 11px;&quot;&gt;Buku&lt;/span&gt;" style="whiteSpace=wrap;html=1;align=center;" vertex="1" parent="1">
          <mxGeometry x="630" y="480" width="100" height="40" as="geometry" />
        </mxCell>
        <mxCell id="lLxVUIgPVJibeyAOsI64-65" value="&lt;span style=&quot;font-size: 10px;&quot;&gt;pengarang&lt;/span&gt;" style="ellipse;whiteSpace=wrap;html=1;align=center;" vertex="1" parent="1">
          <mxGeometry x="750" y="510" width="90" height="36" as="geometry" />
        </mxCell>
        <mxCell id="lLxVUIgPVJibeyAOsI64-66" value="&lt;span style=&quot;font-size: 10px;&quot;&gt;Jenis_buku&lt;/span&gt;" style="ellipse;whiteSpace=wrap;html=1;align=center;" vertex="1" parent="1">
          <mxGeometry x="750" y="564" width="90" height="36" as="geometry" />
        </mxCell>
        <mxCell id="lLxVUIgPVJibeyAOsI64-67" value="&lt;span style=&quot;font-size: 10px;&quot;&gt;penerbit&lt;/span&gt;" style="ellipse;whiteSpace=wrap;html=1;align=center;" vertex="1" parent="1">
          <mxGeometry x="670" y="600" width="90" height="36" as="geometry" />
        </mxCell>
        <mxCell id="lLxVUIgPVJibeyAOsI64-68" value="&lt;span style=&quot;font-size: 10px;&quot;&gt;Tahun_terbit&lt;/span&gt;" style="ellipse;whiteSpace=wrap;html=1;align=center;" vertex="1" parent="1">
          <mxGeometry x="570" y="600" width="90" height="36" as="geometry" />
        </mxCell>
        <mxCell id="lLxVUIgPVJibeyAOsI64-69" value="&lt;span style=&quot;font-size: 10px;&quot;&gt;&lt;u&gt;Nomor_buku&lt;/u&gt;&lt;/span&gt;" style="ellipse;whiteSpace=wrap;html=1;align=center;" vertex="1" parent="1">
          <mxGeometry x="510" y="560" width="90" height="36" as="geometry" />
        </mxCell>
        <mxCell id="lLxVUIgPVJibeyAOsI64-70" value="&lt;span style=&quot;font-size: 10px;&quot;&gt;Judul_buku&lt;/span&gt;" style="ellipse;whiteSpace=wrap;html=1;align=center;" vertex="1" parent="1">
          <mxGeometry x="500" y="510" width="90" height="36" as="geometry" />
        </mxCell>
        <mxCell id="lLxVUIgPVJibeyAOsI64-71" style="edgeStyle=orthogonalEdgeStyle;rounded=0;orthogonalLoop=1;jettySize=auto;html=1;exitX=0.5;exitY=1;exitDx=0;exitDy=0;" edge="1" parent="1" source="lLxVUIgPVJibeyAOsI64-7" target="lLxVUIgPVJibeyAOsI64-7">
          <mxGeometry relative="1" as="geometry" />
        </mxCell>
        <mxCell id="lLxVUIgPVJibeyAOsI64-74" value="" style="endArrow=none;html=1;rounded=0;exitX=0.5;exitY=1;exitDx=0;exitDy=0;entryX=0.5;entryY=0;entryDx=0;entryDy=0;" edge="1" parent="1" source="lLxVUIgPVJibeyAOsI64-47" target="lLxVUIgPVJibeyAOsI64-64">
          <mxGeometry relative="1" as="geometry">
            <mxPoint x="610" y="440" as="sourcePoint" />
            <mxPoint x="770" y="440" as="targetPoint" />
          </mxGeometry>
        </mxCell>
        <mxCell id="lLxVUIgPVJibeyAOsI64-82" value="&lt;font style=&quot;font-size: 10px;&quot;&gt;Many&lt;/font&gt;" style="edgeLabel;html=1;align=center;verticalAlign=middle;resizable=0;points=[];" vertex="1" connectable="0" parent="lLxVUIgPVJibeyAOsI64-74">
          <mxGeometry x="-0.191" y="1" relative="1" as="geometry">
            <mxPoint as="offset" />
          </mxGeometry>
        </mxCell>
        <mxCell id="lLxVUIgPVJibeyAOsI64-76" value="" style="endArrow=none;html=1;rounded=0;exitX=0.931;exitY=0.26;exitDx=0;exitDy=0;exitPerimeter=0;" edge="1" parent="1" source="lLxVUIgPVJibeyAOsI64-70">
          <mxGeometry relative="1" as="geometry">
            <mxPoint x="610" y="440" as="sourcePoint" />
            <mxPoint x="630" y="500" as="targetPoint" />
          </mxGeometry>
        </mxCell>
        <mxCell id="lLxVUIgPVJibeyAOsI64-77" value="" style="endArrow=none;html=1;rounded=0;exitX=0.979;exitY=0.393;exitDx=0;exitDy=0;exitPerimeter=0;entryX=0.5;entryY=1;entryDx=0;entryDy=0;" edge="1" parent="1" source="lLxVUIgPVJibeyAOsI64-69" target="lLxVUIgPVJibeyAOsI64-64">
          <mxGeometry relative="1" as="geometry">
            <mxPoint x="550" y="550" as="sourcePoint" />
            <mxPoint x="710" y="550" as="targetPoint" />
          </mxGeometry>
        </mxCell>
        <mxCell id="lLxVUIgPVJibeyAOsI64-78" value="" style="endArrow=none;html=1;rounded=0;exitX=0.5;exitY=0;exitDx=0;exitDy=0;entryX=0.5;entryY=1;entryDx=0;entryDy=0;" edge="1" parent="1" source="lLxVUIgPVJibeyAOsI64-68" target="lLxVUIgPVJibeyAOsI64-64">
          <mxGeometry relative="1" as="geometry">
            <mxPoint x="550" y="610" as="sourcePoint" />
            <mxPoint x="710" y="610" as="targetPoint" />
          </mxGeometry>
        </mxCell>
        <mxCell id="lLxVUIgPVJibeyAOsI64-79" value="" style="endArrow=none;html=1;rounded=0;entryX=0.5;entryY=1;entryDx=0;entryDy=0;exitX=0.5;exitY=0;exitDx=0;exitDy=0;" edge="1" parent="1" source="lLxVUIgPVJibeyAOsI64-67" target="lLxVUIgPVJibeyAOsI64-64">
          <mxGeometry relative="1" as="geometry">
            <mxPoint x="550" y="580" as="sourcePoint" />
            <mxPoint x="710" y="580" as="targetPoint" />
          </mxGeometry>
        </mxCell>
        <mxCell id="lLxVUIgPVJibeyAOsI64-80" value="" style="endArrow=none;html=1;rounded=0;entryX=0.021;entryY=0.375;entryDx=0;entryDy=0;entryPerimeter=0;" edge="1" parent="1" target="lLxVUIgPVJibeyAOsI64-66">
          <mxGeometry relative="1" as="geometry">
            <mxPoint x="680" y="520" as="sourcePoint" />
            <mxPoint x="890" y="510" as="targetPoint" />
          </mxGeometry>
        </mxCell>
        <mxCell id="lLxVUIgPVJibeyAOsI64-81" value="" style="endArrow=none;html=1;rounded=0;exitX=1;exitY=0.5;exitDx=0;exitDy=0;entryX=0.058;entryY=0.287;entryDx=0;entryDy=0;entryPerimeter=0;" edge="1" parent="1" source="lLxVUIgPVJibeyAOsI64-64" target="lLxVUIgPVJibeyAOsI64-65">
          <mxGeometry relative="1" as="geometry">
            <mxPoint x="710" y="530" as="sourcePoint" />
            <mxPoint x="870" y="530" as="targetPoint" />
          </mxGeometry>
        </mxCell>
      </root>
    </mxGraphModel>
  </diagram>
</mxfile>
